<svg width="431" height="466" viewBox="0 0 431 466" fill="none" xmlns="http://www.w3.org/2000/svg">
<circle cx="179.231" cy="197.154" r="179.231" fill="#FFEAA7"/>
<circle cx="304.692" cy="89.6154" r="89.6154" fill="#FFEAA7"/>
<circle cx="107.539" cy="376.385" r="35.8462" fill="#C5A639" fill-opacity="0.58"/>
<circle cx="125.462" cy="394.308" r="53.7692" fill="#FFEAA7"/>
<circle cx="53.769" cy="394.308" r="17.9231" fill="#C5A639" fill-opacity="0.58"/>
<circle cx="89.6157" cy="430.154" r="17.9231" fill="#C5A639" fill-opacity="0.58"/>
<path d="M304.692 0C367.423 0 430.154 80.6538 430.154 80.6538C367.423 80.6538 351 114 354 147.5C357 181 376.385 250.923 322.615 313.654C268.846 376.385 224.038 376.385 161.308 376.385C161.308 376.385 145.732 380.296 116.5 421.192C87.2684 462.088 98.5769 466 89.6154 466C80.6538 466 71.6923 430.154 62.7308 421.192C53.7692 412.231 17.9231 403.269 8.96153 394.308C-8.10623e-06 385.346 35.8461 376.385 53.7692 376.385C71.6923 376.385 71.6922 367.423 89.6154 340.538C107.539 313.654 107.539 241.962 143.385 170.269C179.231 98.5769 209.118 83.6095 224.038 53.7692C238.959 23.929 241.962 0 304.692 0Z" fill="#483963"/>
<circle cx="313.654" cy="44.8076" r="26.8846" fill="#E5E5E5"/>
</svg>
